<svg width="52" height="52" viewBox="0 0 52 52" fill="none" xmlns="http://www.w3.org/2000/svg">
<rect width="51.625" height="51.625" rx="25.8125" fill="#D9D9D9"/>
<path d="M17.4414 29.8135H12.3438V20.4312H11.0254V31H17.4414V29.8135ZM21.6309 31.1318C23.7329 31.1318 25.1538 29.6157 25.1538 27.1914C25.1538 24.7598 23.7329 23.251 21.6309 23.251C19.5215 23.251 18.1006 24.7598 18.1006 27.1914C18.1006 29.6157 19.5215 31.1318 21.6309 31.1318ZM21.6309 30.0112C20.2832 30.0112 19.397 28.9858 19.397 27.1914C19.397 25.397 20.2832 24.3716 21.6309 24.3716C22.9785 24.3716 23.8574 25.397 23.8574 27.1914C23.8574 28.9858 22.9785 30.0112 21.6309 30.0112ZM29.541 29.938C28.23 29.938 27.373 28.8687 27.373 27.1621C27.373 25.4556 28.23 24.3716 29.541 24.3716C30.8667 24.3716 31.7529 25.4849 31.7529 27.1621C31.7529 28.8394 30.8667 29.938 29.541 29.938ZM29.585 33.8711C31.687 33.8711 33.0273 32.6626 33.0273 30.8462V23.3828H31.8115V24.6646H31.7896C31.2842 23.7783 30.3906 23.251 29.314 23.251C27.3438 23.251 26.0693 24.7744 26.0693 27.1621C26.0693 29.5278 27.3438 31.0586 29.2847 31.0586C30.354 31.0586 31.2549 30.5166 31.7236 29.689H31.7529V30.8901C31.7529 32.0254 30.9546 32.7871 29.6362 32.7871C28.6841 32.7871 27.9297 32.3257 27.6807 31.6299H26.3696C26.582 32.9263 27.9077 33.8711 29.585 33.8711ZM37.8467 31.1318C39.9487 31.1318 41.3696 29.6157 41.3696 27.1914C41.3696 24.7598 39.9487 23.251 37.8467 23.251C35.7373 23.251 34.3164 24.7598 34.3164 27.1914C34.3164 29.6157 35.7373 31.1318 37.8467 31.1318ZM37.8467 30.0112C36.499 30.0112 35.6128 28.9858 35.6128 27.1914C35.6128 25.397 36.499 24.3716 37.8467 24.3716C39.1943 24.3716 40.0732 25.397 40.0732 27.1914C40.0732 28.9858 39.1943 30.0112 37.8467 30.0112Z" fill="white"/>
</svg>
