<svg width="178" height="52" viewBox="0 0 178 52" fill="none" xmlns="http://www.w3.org/2000/svg">
<rect width="51.625" height="51.625" rx="25.8125" fill="#D9D9D9"/>
<path d="M17.4414 29.8135H12.3438V20.4312H11.0254V31H17.4414V29.8135ZM21.6309 31.1318C23.7329 31.1318 25.1538 29.6157 25.1538 27.1914C25.1538 24.7598 23.7329 23.251 21.6309 23.251C19.5215 23.251 18.1006 24.7598 18.1006 27.1914C18.1006 29.6157 19.5215 31.1318 21.6309 31.1318ZM21.6309 30.0112C20.2832 30.0112 19.397 28.9858 19.397 27.1914C19.397 25.397 20.2832 24.3716 21.6309 24.3716C22.9785 24.3716 23.8574 25.397 23.8574 27.1914C23.8574 28.9858 22.9785 30.0112 21.6309 30.0112ZM29.541 29.938C28.23 29.938 27.373 28.8687 27.373 27.1621C27.373 25.4556 28.23 24.3716 29.541 24.3716C30.8667 24.3716 31.7529 25.4849 31.7529 27.1621C31.7529 28.8394 30.8667 29.938 29.541 29.938ZM29.585 33.8711C31.687 33.8711 33.0273 32.6626 33.0273 30.8462V23.3828H31.8115V24.6646H31.7896C31.2842 23.7783 30.3906 23.251 29.314 23.251C27.3438 23.251 26.0693 24.7744 26.0693 27.1621C26.0693 29.5278 27.3438 31.0586 29.2847 31.0586C30.354 31.0586 31.2549 30.5166 31.7236 29.689H31.7529V30.8901C31.7529 32.0254 30.9546 32.7871 29.6362 32.7871C28.6841 32.7871 27.9297 32.3257 27.6807 31.6299H26.3696C26.582 32.9263 27.9077 33.8711 29.585 33.8711ZM37.8467 31.1318C39.9487 31.1318 41.3696 29.6157 41.3696 27.1914C41.3696 24.7598 39.9487 23.251 37.8467 23.251C35.7373 23.251 34.3164 24.7598 34.3164 27.1914C34.3164 29.6157 35.7373 31.1318 37.8467 31.1318ZM37.8467 30.0112C36.499 30.0112 35.6128 28.9858 35.6128 27.1914C35.6128 25.397 36.499 24.3716 37.8467 24.3716C39.1943 24.3716 40.0732 25.397 40.0732 27.1914C40.0732 28.9858 39.1943 30.0112 37.8467 30.0112Z" fill="white"/>
<path d="M64.7969 7.9082V22H67.7461V17.5566H70.3828C73.3516 17.5566 75.4121 15.623 75.4121 12.7324C75.4121 9.83203 73.4199 7.9082 70.5293 7.9082H64.7969ZM67.7461 10.2422H69.748C71.4375 10.2422 72.4141 11.1406 72.4141 12.7422C72.4141 14.3535 71.4277 15.252 69.7383 15.252H67.7461V10.2422ZM79.9094 22V7.9082H76.9602V22H79.9094ZM88.2836 22.2441C91.7406 22.2441 94.1527 20.252 94.4848 17.1074H91.6137C91.3012 18.7773 90.0414 19.8027 88.2934 19.8027C86.0375 19.8027 84.6215 17.9473 84.6215 14.9395C84.6215 11.9707 86.057 10.1055 88.2836 10.1055C90.0023 10.1055 91.3305 11.2383 91.6039 12.9668H94.475C94.2504 9.8125 91.6723 7.66406 88.2836 7.66406C84.2016 7.66406 81.6137 10.4082 81.6137 14.9492C81.6137 19.5 84.182 22.2441 88.2836 22.2441ZM101.98 22V10.3398H106.062V7.9082H94.9586V10.3398H99.0309V22H101.98Z" fill="black"/>
<path d="M73.9883 46.3418C78.8281 46.3418 82.2051 43.5527 82.6699 39.1504H78.6504C78.2129 41.4883 76.4492 42.9238 74.002 42.9238C70.8438 42.9238 68.8613 40.3262 68.8613 36.1152C68.8613 31.959 70.8711 29.3477 73.9883 29.3477C76.3945 29.3477 78.2539 30.9336 78.6367 33.3535H82.6562C82.3418 28.9375 78.7324 25.9297 73.9883 25.9297C68.2734 25.9297 64.6504 29.7715 64.6504 36.1289C64.6504 42.5 68.2461 46.3418 73.9883 46.3418ZM91.3313 46.3145C95.761 46.3145 98.5911 43.4844 98.5911 38.6582C98.5911 33.9004 95.72 31.0293 91.3313 31.0293C86.9427 31.0293 84.0716 33.9141 84.0716 38.6582C84.0716 43.4707 86.9016 46.3145 91.3313 46.3145ZM91.3313 43.2656C89.3626 43.2656 88.1184 41.6113 88.1184 38.6719C88.1184 35.7598 89.3899 34.0781 91.3313 34.0781C93.2727 34.0781 94.5305 35.7598 94.5305 38.6719C94.5305 41.6113 93.2864 43.2656 91.3313 43.2656ZM105.817 46.2324C107.977 46.2324 109.672 45.0977 110.383 43.4844H110.452V46H114.389V26.2715H110.397V33.8594H110.315C109.604 32.2324 107.963 31.1113 105.844 31.1113C102.167 31.1113 99.8423 33.9961 99.8423 38.6445C99.8423 43.334 102.153 46.2324 105.817 46.2324ZM107.17 34.3105C109.153 34.3105 110.424 36.0059 110.424 38.6719C110.424 41.3516 109.153 43.0195 107.17 43.0195C105.161 43.0195 103.93 41.3652 103.93 38.6719C103.93 35.9922 105.161 34.3105 107.17 34.3105ZM123.351 33.9824C125.129 33.9824 126.346 35.2676 126.428 37.1406H120.207C120.344 35.3086 121.601 33.9824 123.351 33.9824ZM126.482 41.5156C126.113 42.6367 124.992 43.3613 123.529 43.3613C121.492 43.3613 120.166 41.9258 120.166 39.834V39.5879H130.269V38.3711C130.269 33.9141 127.576 31.0293 123.31 31.0293C118.976 31.0293 116.242 34.0645 116.242 38.7402C116.242 43.4297 118.949 46.3145 123.461 46.3145C127.084 46.3145 129.709 44.3867 130.146 41.5156H126.482ZM145.151 42.582H136.525V26.2715H132.396V46H145.151V42.582ZM152.637 43.3477C151.284 43.3477 150.381 42.6641 150.381 41.5703C150.381 40.5312 151.229 39.8613 152.719 39.752L155.809 39.5605V40.627C155.809 42.2129 154.373 43.3477 152.637 43.3477ZM151.325 46.2324C153.157 46.2324 154.975 45.3164 155.795 43.7578H155.877V46H159.733V35.9238C159.733 32.9707 157.286 31.0293 153.526 31.0293C149.643 31.0293 147.223 32.9844 147.073 35.8281H150.723C150.914 34.748 151.858 34.0098 153.348 34.0098C154.852 34.0098 155.809 34.8027 155.809 36.1699V37.1406L152.118 37.3594C148.467 37.5781 146.416 39.123 146.416 41.7891C146.416 44.4277 148.536 46.2324 151.325 46.2324ZM170.746 46.2324C174.437 46.2324 176.693 43.3887 176.693 38.6719C176.693 33.9414 174.424 31.1113 170.732 31.1113C168.64 31.1113 167.013 32.1504 166.207 33.8867H166.125V26.2715H162.132V46H166.07V43.4844H166.152C166.959 45.1934 168.599 46.2324 170.746 46.2324ZM169.365 34.3105C171.347 34.3105 172.605 36.0059 172.605 38.6719C172.605 41.3516 171.361 43.0195 169.365 43.0195C167.424 43.0195 166.111 41.3242 166.111 38.6719C166.111 36.0469 167.437 34.3105 169.365 34.3105Z" fill="#2990EF"/>
</svg>
